<?xml version="1.0" standalone="no"?>
<!DOCTYPE svg PUBLIC "-//W3C//DTD SVG 20010904//EN"
 "http://www.w3.org/TR/2001/REC-SVG-20010904/DTD/svg10.dtd">
<svg version="1.0" xmlns="http://www.w3.org/2000/svg"
 width="40pt" height="40pt" viewBox="0 0 500.000000 500.000000"
 preserveAspectRatio="xMidYMid meet">

<g transform="translate(0.000000,500.000000) scale(0.100000,-0.100000)"
fill="#006b9f" stroke="none">
<path d="M2325 4790 c-562 -47 -1069 -282 -1457 -676 -622 -631 -824 -1538
-533 -2385 73 -211 225 -481 379 -674 78 -96 235 -254 331 -332 423 -342 913
-516 1455 -516 462 0 876 122 1255 371 269 176 477 383 660 656 252 378 378
800 378 1266 0 365 -74 691 -229 1007 -297 606 -848 1054 -1498 1219 -217 55
-527 82 -741 64z m155 -460 c14 -26 9 -92 -7 -97 -12 -4 -53 65 -53 91 0 29
45 34 60 6z m279 -24 c10 -11 10 -20 0 -38 -14 -29 -50 -68 -61 -68 -13 0 -9
36 8 80 17 42 33 50 53 26z m-488 -118 c69 -38 60 -66 -16 -47 -51 13 -59 21
-50 49 8 25 18 25 66 -2z m397 -77 c105 -54 150 -175 103 -276 -10 -22 -35
-64 -55 -94 -38 -56 -46 -102 -23 -133 17 -21 4 -157 -15 -169 -7 -5 -48 -9
-90 -9 -65 0 -81 3 -98 20 -11 11 -20 28 -20 39 0 10 -3 38 -6 63 -5 34 -2 48
11 62 26 26 12 74 -42 137 -61 71 -83 121 -83 189 0 122 100 208 228 195 30
-3 70 -14 90 -24z m302 4 c18 -22 -2 -42 -48 -47 -71 -9 -82 11 -24 41 45 24
56 25 72 6z m-741 -129 c14 -15 14 -18 1 -26 -8 -5 -38 -10 -66 -10 -56 0 -76
18 -52 47 16 20 93 12 117 -11z m-300 -137 c24 -9 42 -30 79 -93 161 -272 295
-546 413 -845 68 -170 159 -439 159 -467 0 -41 19 -2 49 99 83 278 401 1144
445 1211 26 38 98 76 146 76 55 0 131 -42 163 -92 25 -38 28 -50 24 -108 -3
-62 -8 -72 -89 -200 -172 -272 -355 -626 -467 -904 -29 -71 -86 -229 -127
-351 l-74 -223 0 -323 c0 -292 -2 -328 -19 -364 -30 -68 -113 -125 -181 -125
-78 0 -162 66 -185 145 -15 50 -14 57 15 190 72 333 78 537 22 760 -85 333
-270 772 -476 1132 -75 131 -107 168 -167 198 -26 14 -53 34 -59 44 -16 31
-12 96 8 120 15 19 252 130 278 131 6 0 25 -5 43 -11z m1011 -13 c47 -14 61
-35 36 -55 -25 -21 -118 32 -101 59 8 13 10 13 65 -4z m-650 -60 c0 -20 -59
-68 -79 -64 -29 6 -24 37 11 58 39 23 68 26 68 6z"/>
<path d="M2465 4094 c-44 -23 -66 -45 -81 -81 -31 -72 -11 -159 53 -234 51
-60 73 -99 73 -129 0 -13 5 -20 13 -17 7 2 12 24 12 59 0 48 -4 58 -29 80 -17
14 -26 30 -22 36 11 18 34 14 48 -8 18 -28 43 -27 27 1 -9 18 -7 25 9 42 18
17 23 18 37 7 10 -9 15 -24 13 -41 -4 -23 -2 -25 13 -16 9 5 24 7 34 3 14 -5
15 -9 5 -21 -7 -8 -18 -15 -25 -15 -17 0 -25 -23 -25 -75 0 -55 25 -70 34 -21
4 19 29 67 57 108 67 100 75 157 32 237 -38 73 -89 101 -182 101 -40 0 -78 -6
-96 -16z"/>
<path d="M2580 3809 c0 -11 5 -17 10 -14 6 3 10 13 10 21 0 8 -4 14 -10 14 -5
0 -10 -9 -10 -21z"/>
<path d="M2567 3762 c-12 -2 -16 -9 -13 -19 3 -8 6 -35 6 -59 0 -32 4 -44 15
-44 10 0 15 10 15 28 0 15 4 41 9 59 10 34 2 43 -32 35z"/>
<path d="M2533 3610 c-42 -6 -61 -15 -52 -24 3 -3 25 0 49 5 25 6 70 8 100 4
33 -3 51 -2 45 3 -14 13 -93 20 -142 12z"/>
<path d="M2503 3563 c-17 -6 -17 -74 0 -97 18 -25 160 -20 165 7 3 15 -5 17
-57 17 -34 0 -61 4 -61 10 0 13 63 23 99 15 21 -4 31 -3 31 5 0 9 -24 11 -90
8 -87 -4 -113 3 -67 18 12 4 52 7 90 7 37 0 67 4 67 8 0 9 -156 11 -177 2z"/>
</g>
</svg>